<svg id="Capa_1" enable-background="new 0 0 512 512" height="512" viewBox="0 0 512 512" width="512" xmlns="http://www.w3.org/2000/svg"><g><path d="m415.496 0h-318.982c-13.785 0-25 11.215-25 25 0 1.086-.01 359.606-.01 369.695 0 3.731 1.391 7.329 3.901 10.09l.01.011c.921 1.013 97.547 97.859 100.773 100.273 2.666 4.164 7.321 6.931 12.631 6.931h226.677c13.785 0 25-11.215 25-25v-462c0-13.785-11.215-25-25-25zm-241.677 460.79-51.11-51.105h51.11zm236.677 21.21h-206.677v-87.315c0-8.284-6.716-15-15-15h-87.306v-349.685h308.982v452z"/><path d="m170.97 230.188c6.045 0 11.741-3.681 14.021-9.665l4.681-12.292h33.231l4.623 12.249c2.926 7.749 11.577 11.663 19.33 8.737 7.751-2.925 11.663-11.579 8.738-19.33l-33.267-88.149c-.053-.138-.106-.274-.162-.411-5.799-14.092-25.751-14.041-31.506.036-.046.112-.09.224-.133.336l-33.571 88.145c-3.742 9.828 3.543 20.344 14.015 20.344zm35.393-65.783 5.218 13.826h-10.484z"/><path d="m270.44 125.75h20.713v20.713c0 8.284 6.716 15 15 15s15-6.716 15-15v-20.713h19.874c8.284 0 15-6.716 15-15s-6.716-15-15-15h-19.874v-19.874c0-8.284-6.716-15-15-15s-15 6.716-15 15v19.874h-20.713c-8.284 0-15 6.716-15 15s6.716 15 15 15z"/><path d="m162 308h188c8.284 0 15-6.716 15-15s-6.716-15-15-15h-188c-8.284 0-15 6.716-15 15s6.716 15 15 15z"/><path d="m350 379.685h-93.995c-8.284 0-15 6.716-15 15s6.716 15 15 15h93.995c8.284 0 15-6.716 15-15s-6.716-15-15-15z"/></g></svg>