<?xml version="1.0" encoding="iso-8859-1"?>
<!-- Generator: Adobe Illustrator 16.0.0, SVG Export Plug-In . SVG Version: 6.00 Build 0)  -->
<!DOCTYPE svg PUBLIC "-//W3C//DTD SVG 1.1//EN" "http://www.w3.org/Graphics/SVG/1.1/DTD/svg11.dtd">
<svg version="1.1" id="Capa_1" xmlns="http://www.w3.org/2000/svg" xmlns:xlink="http://www.w3.org/1999/xlink" x="0px" y="0px"
	 width="190.479px" height="190.479px" viewBox="0 0 190.479 190.479" style="enable-background:new 0 0 190.479 190.479;"
	 xml:space="preserve">
<g>
	<g>
		<g>
			<path d="M58.047,47.117C58.041,46.971,57.989,46.968,58.047,47.117L58.047,47.117z"/>
			<path d="M189.537,178.317c-6.802-3.864-13.184-8.632-20.929-10.426c-0.985-0.228-2.174,0.291-2.399,1.362
				c-0.375,1.786-0.611,3.747-0.742,5.73c-2.448-0.608-5.038-0.966-7.68-1.226c0.457-0.829,0.381-1.859,0.457-2.784
				c0.136-1.63,0.319-3.224,0.132-4.855c-0.061-0.528-0.912-0.761-1.014-0.137c-0.257,1.59-0.547,3.176-0.835,4.761
				c-0.178,0.98-0.468,1.967-0.091,2.901c-4.905-0.386-10.031-0.345-15.236-0.028c0.014-0.209,0.028-0.422,0.049-0.619
				c0.167-1.559,0.272-3.119,0.204-4.687c-0.022-0.522-0.756-0.509-0.801,0c-0.137,1.52-0.468,3.008-0.751,4.503
				c-0.052,0.272-0.132,0.583-0.197,0.897c-3.681,0.251-7.374,0.587-11.013,0.936c0.042-1.864-0.342-3.8-0.515-5.605
				c-0.034-0.357-0.521-0.357-0.556,0c-0.178,1.854-0.567,3.842-0.501,5.753c-6.975,0.671-13.718,1.304-19.682,1.213
				c-6.596-0.1-13.204-0.133-19.812-0.161c0.107-0.785-0.015-1.688-0.049-2.42c-0.036-0.774-1.166-0.774-1.202,0
				c-0.034,0.729-0.154,1.627-0.05,2.41c-9.752-0.036-19.51-0.024-29.271,0.056c-0.007-0.814-0.075-1.63-0.138-2.466
				c-0.061-0.813-1.203-0.813-1.264,0c-0.063,0.841-0.131,1.66-0.137,2.48c-5.561,0.05-11.123,0.05-16.682,0.146
				c0.541-1.448,0.203-3.682-0.201-4.988c-0.189-0.609-1.045-0.609-1.234,0c-0.406,1.312-0.745,3.562-0.193,5.009
				c-8.111,0.146-16.217,0.342-24.314,0.597c3.602-22.054,0.445-44.586-1.414-66.722c-0.398-4.743-0.631-9.493-0.805-14.245
				c2.43-0.593,5.107-4.681,6.788-6.25c2.581-2.408,5.198-4.78,7.726-7.244c0.614-0.018,1.232-0.091,1.859-0.231
				c1.844,3.72,3.63,7.47,5.487,11.181c-0.106,0.084-0.23,0.147-0.332,0.234c-1.859,1.59-1.992,4.231-0.88,6.259
				c2.093,3.817,9.284,5.245,11.058,0.501c0.888-2.376-0.563-7.051-3.138-8.067c3.172-11.97,10.423-22.668,16.113-33.713
				c0.702-0.119,1.383-0.39,2.024-0.768c1.355,2.167,2.663,4.359,3.933,6.575c-1.716,1.568-1.999,4.169-1.692,6.332
				c0.345,2.435,1.958,4.435,4.194,5.368c3.013,1.256,6.338-0.92,8.476-2.83c2.153-1.923,3.482-5.087,0.526-6.942
				c-0.397-0.249-0.853-0.405-1.308-0.562c3.936-5.321,8.385-10.181,12.779-15.18c0.22,0.145,0.393,0.348,0.633,0.462
				c1.137,0.541,2.494,0.627,3.804,0.365c3.262,5.195,7.698,16.244,8.154,17.419c4.51,11.614,7.131,23.81,10.796,35.658
				c-1.127,0.874-1.873,2.418-2.225,3.635c-1.405,4.867,1.512,10.481,7.006,10.085c3.488-0.251,7.963-2.666,7.2-6.718
				c-0.382-2.031-2.276-3.388-4.379-4.158c2.911-5.848,5.467-11.874,8.157-17.833c0.85-0.073,1.665-0.423,2.373-0.952
				c3.415,4.774,6.578,9.716,9.714,14.679c-0.196,0.308-0.349,0.658-0.412,1.081c-0.224,1.484,0.552,2.729,1.569,3.773
				c0.099,0.426,0.259,0.834,0.519,1.212c0.17,0.727,0.428,1.423,0.939,1.977c1.188,1.286,2.795,0.887,4.112,0.104
				c0.802,0.1,1.557-0.05,2.103-0.655c0.441-0.491,0.617-1.136,0.642-1.843c0.422-0.518,0.826-1.053,1.22-1.578
				c0.433-0.575,0.278-1.666-0.272-2.117c-0.42-0.343-0.906-0.756-1.427-1.147c3.694-5.889,7.818-11.388,11.809-17.068
				c0.436,0.57,0.956,1.107,1.677,1.546c5.306,3.231,8.328-4.682,7.202-8.708c-1.098-3.926-8.07-4.557-9.851-0.845
				c-0.42,0.875-0.238,1.87,0.185,2.837c-0.068,0.209-0.112,0.42-0.159,0.633c-5.871,4.9-10.322,12.256-14.185,19.146
				c-0.463-0.131-0.942-0.084-1.423,0.079c-0.153-0.044-0.294-0.038-0.455,0.006c-0.051,0-0.102-0.003-0.153-0.001
				c-3.451-5.481-6.927-10.935-10.721-16.185c0.276-0.371,0.418-0.802,0.349-1.258c2.308-1.904,0.287-3.932-2.294-4.678
				c-0.333-0.477-0.687-0.934-1.067-1.343c-0.52-0.556-1.389-0.619-2.03-0.262c-1.812,1.009-4.457,2.266-5.416,4.257
				c-0.631,1.309-0.122,2.466,0.927,3.154c0.178,0.915,0.523,1.767,1.076,2.483c-2.595,5.832-5.024,11.749-7.235,17.739
				c-0.188-0.227-0.358-0.463-0.579-0.656c-4.051-18.808-10.3-38.632-19.799-55.397c0.637-0.643,1.115-1.415,1.334-2.292
				c0.79-3.17-1.945-6.481-4.014-8.555c-1.105-1.107-2.659-0.319-2.939,0.952c-1.142-0.12-2.162-0.043-3.28,0.679
				c-1.176,0.76-1.864,2.081-2.107,3.428c-0.229,1.269-0.023,2.592,0.452,3.801c-4.529,5.359-9.233,10.578-13,16.454
				c-1.222-0.794-2.563-1.162-3.895-1.089c-1.488-2.694-3.033-5.355-4.681-7.956c0.702-1.32,0.553-2.992-0.055-4.299
				c-0.351-0.754-0.804-1.42-1.299-2.086c-0.218-0.293-0.438-0.583-0.65-0.881c-0.106-0.149-0.162-0.259-0.191-0.334
				c0.003,0.079-0.007,0.194-0.056,0.359c0.443-1.749-1.527-2.658-2.697-1.895c-4.656,0.887-7.09,8.227-3.608,11.565
				c-3.497,6.873-7.419,13.543-10.733,20.508c-1.476,3.1-4.332,8.219-5.262,12.902c-1.654-3.435-3.341-6.854-5.098-10.234
				c0.408-0.332,0.807-0.676,1.11-1.097c2.296-3.184-2.399-5.413-4.735-6.164c-0.593-0.608-1.305-0.956-2.346-0.485
				c-1.627,0.736-3.378,3.126-4.001,4.754c-0.583,1.522-0.218,2.75,0.639,3.602c-2.401,2.37-4.844,4.701-7.192,7.117
				c-0.849,0.873-2.455,2.313-3.518,3.847c-0.588-22.024,0.568-44.123-0.329-66.139c1.606-0.05,3.222-0.082,4.777-0.264
				c0.796-0.093,1.551-0.494,1.773-1.331c0.005-0.001,0.008,0.001,0.014,0c0.59-0.094,1.255-0.758,1.349-1.349
				c1.019-6.467-3.152-13.741-6.208-19.171C11.33,2.585,9.708,2.317,8.873,3.243C6.488,5.889,5.17,9.51,3.84,12.757
				c-1.371,3.345-2.914,7.062-3.23,10.698c-0.005,0.057,0.016,0.098,0.016,0.153c-0.551,0.65-0.28,1.797,0.851,1.91
				c1.908,0.19,3.885,0.268,5.859,0.297C6.015,51.553,6.1,77.896,7.402,103.535c1.239,24.407,6.064,48.938,1.904,73.236
				c-2.609,0.089-5.223,0.139-7.83,0.238c-1.966,0.075-1.969,2.984,0,3.052c2.392,0.082,4.787,0.072,7.18,0.127
				c-0.055,0.264-0.093,0.527-0.15,0.79c-0.49,2.269,2.987,3.232,3.478,0.959c0.121-0.56,0.178-1.124,0.289-1.685
				c26.832,0.481,53.72-0.428,80.547-0.483c14.627-0.029,29.217,0.509,43.844,0c9.617-0.334,19.329-2.919,28.737-0.732
				c0.039,0.954,0.135,1.87,0.258,2.781c-0.137,1.329-0.233,2.668-0.259,4.025c-0.019,1.037,0.904,1.994,1.956,1.956
				c7.684-0.281,14.332-4.257,21.711-5.919C190.737,181.512,190.965,179.128,189.537,178.317z"/>
		</g>
		<path d="M27.62,87.353c0.155-0.748-0.863-1.012-1.13-0.311c-0.861,2.266-1.314,4.925-0.16,7.156
			c0.372,0.719,1.642,0.413,1.565-0.424C27.688,91.52,27.143,89.657,27.62,87.353z"/>
		<path d="M27.556,100.351c-0.045-0.645-0.957-0.646-1.002,0c-0.179,2.587-0.857,6.068,0.706,8.346
			c0.338,0.493,1.117,0.321,1.135-0.308C28.469,105.742,27.744,103.009,27.556,100.351z"/>
		<path d="M27.556,121.543c-0.055-0.645-0.946-0.645-1.002,0c-0.187,2.17-0.73,4.63-0.146,6.755c0.176,0.642,1.117,0.642,1.293,0
			C28.287,126.173,27.743,123.713,27.556,121.543z"/>
		<path d="M27.944,136c-0.723,2.712-1.557,6.342-0.716,9.081c0.17,0.552,0.945,0.55,1.115,0c0.84-2.722,0.206-5.925,0.745-8.765
			C29.229,135.573,28.144,135.253,27.944,136z"/>
		<path d="M27.533,152.966c-0.075-0.614-0.88-0.614-0.955,0c-0.289,2.368-0.798,5.157-0.221,7.5c0.171,0.693,1.227,0.693,1.397,0
			C28.331,158.123,27.822,155.334,27.533,152.966z"/>
		<path d="M26.949,166.85c-0.074-0.815-1.146-0.79-1.249,0c-0.283,2.19-0.86,4.375-0.808,6.577c0.02,0.822,1.112,0.916,1.378,0.188
			C27.023,171.547,27.147,169.039,26.949,166.85z"/>
		<path d="M40.202,109.851c-0.049-0.933-1.4-0.933-1.449,0c-0.121,2.294-0.837,5.347-0.093,7.533c0.274,0.808,1.361,0.808,1.635,0
			C41.04,115.197,40.323,112.144,40.202,109.851z"/>
		<path d="M39.355,125.197c-0.066-0.784-1.152-0.784-1.218,0c-0.216,2.576-0.734,5.702-0.09,8.23c0.176,0.693,1.221,0.693,1.397,0
			C40.09,130.899,39.572,127.771,39.355,125.197z"/>
		<path d="M38.935,140.393c-0.839,2.317-1.392,5.215-0.931,7.662c0.139,0.739,1.346,0.738,1.486,0
			c0.463-2.43-0.036-4.914,0.53-7.362C40.186,139.977,39.181,139.717,38.935,140.393z"/>
		<path d="M38.269,157.28c-0.056-0.251-0.449-0.251-0.506,0c-0.593,2.65-1.032,5.643-0.565,8.333c0.141,0.812,1.494,0.812,1.635,0
			C39.301,162.923,38.863,159.931,38.269,157.28z"/>
		<path d="M56.122,65.111c-0.165,0.185,0.061,0.53,0.28,0.363c0.629-0.481,0.392-0.933,0.406-0.072
			c0.014,0.838-0.156,1.682-0.323,2.498c-0.337,1.646-0.741,3.278-1.264,4.875c-0.124,0.379,0.007,0.879,0.303,1.146
			c0.238,0.215,0.495,0.387,0.833,0.345c0.535-0.066,0.977-0.313,1.137-0.865c0.685-2.368,1.363-4.964,1.251-7.447
			C58.657,64.001,57.269,63.825,56.122,65.111z"/>
		<path d="M57.409,81.351c-0.017-0.507-0.769-0.507-0.786,0c-0.127,3.864-1.267,8.076-0.38,11.905c0.178,0.767,1.368,0.767,1.546,0
			C58.676,89.427,57.536,85.215,57.409,81.351z"/>
		<path d="M56.604,101.725c-0.054-0.317-0.586-0.317-0.639,0c-0.477,2.833-1.132,6.259-0.461,9.072c0.185,0.774,1.376,0.774,1.561,0
			C57.737,107.982,57.082,104.557,56.604,101.725z"/>
		<path d="M56.91,119.351c-0.106-0.802-1.144-0.803-1.249,0c-0.402,3.075-0.738,7.03,0.709,9.877
			c0.351,0.69,1.376,0.331,1.393-0.377C57.836,125.776,57.311,122.404,56.91,119.351z"/>
		<path d="M56.609,138.35c-0.022-0.417-0.626-0.417-0.647,0c-0.176,3.368-0.812,6.864-0.555,10.231c0.086,1.132,1.671,1.132,1.757,0
			C57.421,145.215,56.785,141.718,56.609,138.35z"/>
		<path d="M57.416,161.677c-0.14-1.937,0.05-3.858,0.194-5.788c0.052-0.688-0.98-0.778-1.166-0.156
			c-0.927,3.096-1.808,7.834-0.107,10.784c0.413,0.717,1.408,0.353,1.465-0.396C57.916,164.639,57.521,163.153,57.416,161.677z"/>
		<path d="M69.103,84.132c-0.171-1.404-0.206-2.831-0.293-4.242c-0.067-1.072-1.599-1.073-1.665,0
			c-0.131,2.141-0.792,6.297,0.893,7.978c0.584,0.583,1.621,0.158,1.619-0.67C69.653,86.177,69.228,85.156,69.103,84.132z"/>
		<path d="M69.178,95.236c-0.055-0.605-0.885-0.605-0.94,0c-0.259,2.817-0.96,6.207-0.266,8.972c0.183,0.729,1.288,0.729,1.471,0
			C70.138,101.443,69.437,98.054,69.178,95.236z"/>
		<path d="M69.064,109.218c0.157-0.392-0.484-0.65-0.676-0.285c-2.387,4.538-3.382,10.404-1.09,15.199
			c0.334,0.698,1.522,0.369,1.465-0.396C68.382,118.641,67.058,114.221,69.064,109.218z"/>
		<path d="M67.485,132.216c-0.996,2.254-1.3,4.61-0.862,7.037c0.112,0.622,1.135,0.619,1.249,0c0.401-2.179,0.315-4.405,0.657-6.597
			C68.618,132.073,67.768,131.576,67.485,132.216z"/>
		<path d="M67.581,148.489c-0.127-0.438-0.742-0.249-0.669,0.184c0.491,2.916-0.085,5.964,0.56,8.816
			c0.113,0.501,0.898,0.502,1.011,0C69.124,154.636,68.381,151.252,67.581,148.489z"/>
		<path d="M69.481,169.597c-0.162-1.959-0.42-3.927-0.969-5.816c-0.204-0.7-1.186-0.398-1.07,0.295c0.306,1.83,0.37,3.67,0.37,5.521
			c0,1.256-0.484,3.107,0.29,4.185c0.322,0.447,0.889,0.448,1.211,0C70.09,172.699,69.583,170.838,69.481,169.597z"/>
		<path d="M86.877,57.236c-0.043-0.814-1.22-0.814-1.264,0c-0.14,2.63-0.623,5.634-0.03,8.221c0.151,0.657,1.172,0.657,1.323,0
			C87.5,62.871,87.018,59.866,86.877,57.236z"/>
		<path d="M86.74,77.698c-0.065-0.635-0.922-0.635-0.987,0c-0.28,2.742-0.548,5.476-0.161,8.219c0.092,0.651,1.216,0.651,1.308,0
			C87.287,83.173,87.019,80.439,86.74,77.698z"/>
		<path d="M88.185,95.236c-0.039-0.615-0.916-0.615-0.955,0c-0.203,3.163-0.605,6.515-0.109,9.662c0.092,0.584,1.082,0.584,1.174,0
			C88.791,101.751,88.389,98.399,88.185,95.236z"/>
		<path d="M88.877,120.082c-0.03-0.566-0.851-0.567-0.878,0c-0.115,2.316-0.423,4.753,0.657,6.876
			c0.259,0.509,1.165,0.29,1.106-0.299C89.54,124.445,88.997,122.323,88.877,120.082z"/>
		<path d="M88.05,138.256c-0.12-0.447-0.767-0.255-0.684,0.189c0.595,3.175-0.075,6.426,0.493,9.564
			c0.104,0.576,1.056,0.576,1.159,0C89.578,144.896,88.859,141.278,88.05,138.256z"/>
		<path d="M88.231,157.35c-0.041-0.675-1.007-0.675-1.048,0c-0.176,2.911-0.419,5.866-0.046,8.77c0.094,0.732,1.047,0.732,1.141,0
			C88.651,163.216,88.408,160.261,88.231,157.35z"/>
		<path d="M113.886,120.646c-0.271-0.751-1.387-0.461-1.204,0.332c0.58,2.52,0.12,4.641-0.045,7.142
			c-0.043,0.651,0.902,0.872,1.207,0.327C115.098,126.19,114.731,122.989,113.886,120.646z"/>
		<path d="M113.861,136.889c-0.062-0.744-1.093-0.744-1.156,0c-0.259,3.055-0.886,6.699-0.165,9.705c0.178,0.738,1.31,0.738,1.486,0
			C114.747,143.588,114.12,139.943,113.861,136.889z"/>
		<path d="M113.054,156.619c-0.053-0.646-0.95-0.646-1.002,0c-0.156,1.949-0.581,4.087-0.109,6.014c0.148,0.605,1.071,0.605,1.219,0
			C113.635,160.707,113.21,158.568,113.054,156.619z"/>
		<path d="M113.169,168.872c-0.299-0.755-1.412-0.481-1.233,0.34c0.426,1.951,0.146,3.976,0.634,5.873
			c0.182,0.706,1.248,0.709,1.427,0C114.511,173.059,113.923,170.773,113.169,168.872z"/>
		<path d="M126.839,94.505c-0.055-0.516-0.748-0.516-0.803,0c-0.295,2.819-0.606,5.951-0.285,8.769c0.102,0.882,1.271,0.882,1.372,0
			C127.445,100.456,127.134,97.324,126.839,94.505z"/>
		<path d="M127.562,112.043c-0.035-0.506-0.751-0.506-0.786,0c-0.222,3.218-0.636,6.444-0.179,9.658
			c0.081,0.568,1.062,0.568,1.144,0C128.197,118.487,127.783,115.261,127.562,112.043z"/>
		<path d="M127.607,130.312c-0.07-0.564-0.808-0.564-0.878,0c-0.243,1.949-0.237,3.89-0.108,5.847c0.046,0.705,1.048,0.705,1.095,0
			C127.845,134.201,127.85,132.261,127.607,130.312z"/>
		<path d="M128.278,144.092c-0.073-0.377-0.685-0.377-0.758,0c-0.486,2.508-0.792,5.045-0.252,7.586c0.133,0.627,1.13,0.627,1.263,0
			C129.069,149.137,128.764,146.6,128.278,144.092z"/>
		<path d="M128.472,157.923c-0.08-0.569-1.065-0.569-1.145,0c-0.291,2.081-0.44,4.103-0.104,6.19c0.108,0.672,1.244,0.672,1.353,0
			C128.912,162.025,128.763,160.004,128.472,157.923z"/>
		<path d="M141.374,115.584c-0.816,2.909-1.301,5.853-0.962,8.882c0.093,0.823,1.187,0.822,1.279,0
			c0.326-2.878-0.006-5.788,0.5-8.656C142.285,115.28,141.524,115.05,141.374,115.584z"/>
		<path d="M141.453,135.427c-0.04-0.516-0.761-0.516-0.801,0c-0.208,2.646-0.462,5.397-0.154,8.038c0.083,0.714,1.027,0.714,1.11,0
			C141.914,140.824,141.66,138.073,141.453,135.427z"/>
		<path d="M140.68,150.555c-0.789,1.561-1.024,2.853-0.852,4.603c0.063,0.637,0.918,0.632,0.987,0
			c0.154-1.437,0.184-2.896,0.654-4.271C141.626,150.425,140.9,150.12,140.68,150.555z"/>
		<path d="M140.723,161.004c-0.043-0.515-0.76-0.517-0.801,0c-0.147,1.843-0.342,3.744,0.752,5.337
			c0.279,0.409,0.917,0.16,0.803-0.339C141.095,164.339,140.864,162.705,140.723,161.004z"/>
		<path d="M161.875,92.313c-0.024-0.467-0.699-0.467-0.725,0c-0.177,3.361-0.995,7.078-0.299,10.413
			c0.137,0.657,1.186,0.657,1.323,0C162.87,99.39,162.054,95.674,161.875,92.313z"/>
		<path d="M160.476,113.388c-0.17-0.554-0.932-0.313-0.848,0.233c0.448,2.931-0.078,5.964,0.448,8.847
			c0.128,0.701,1.285,0.702,1.412,0C162.02,119.546,161.334,116.193,160.476,113.388z"/>
		<path d="M159.838,132.504c-0.076-0.664-0.957-0.664-1.033,0c-0.222,1.953-0.689,4.103-0.094,6.014c0.188,0.604,1.031,0.604,1.22,0
			C160.527,136.606,160.06,134.457,159.838,132.504z"/>
		<path d="M158.346,149.758c-0.277-0.625-1.129-0.146-1.028,0.435c0.415,2.395-0.036,5.021,0.656,7.327
			c0.184,0.61,1.051,0.611,1.233,0C159.928,155.113,159.35,152.02,158.346,149.758z"/>
	</g>
</g>
<g>
</g>
<g>
</g>
<g>
</g>
<g>
</g>
<g>
</g>
<g>
</g>
<g>
</g>
<g>
</g>
<g>
</g>
<g>
</g>
<g>
</g>
<g>
</g>
<g>
</g>
<g>
</g>
<g>
</g>
</svg>
